<svg width="109" height="136" viewBox="0 0 109 136" fill="none" xmlns="http://www.w3.org/2000/svg">
<path fill-rule="evenodd" clip-rule="evenodd" d="M11.2812 54.6114L10.3263 54.5969L10.4088 48.3898L11.3632 48.4043L11.2812 54.6114" fill="#554644"/>
<path fill-rule="evenodd" clip-rule="evenodd" d="M14.8196 0C14.8196 0 -4.99168 1.63665 -9.37531 14.3558C-9.37531 14.3558 -7.88939 18.233 -4.36856 17.9596C-4.36856 17.9596 -0.601931 9.75002 4.37472 6.6808C9.35081 3.61047 14.8196 0 14.8196 0" fill="#DE3A08"/>
<path fill-rule="evenodd" clip-rule="evenodd" d="M-4.82063 63.5981C-4.82063 63.5981 -17.8226 51.7076 -17.6694 40.6213C-17.6694 40.6213 -14.6191 37.2925 -11.1587 39.4253L-11.449 41.2844L-7.74597 41.8679L-8.89613 45.1783L-4.83618 45.501L-5.6294 48.5505L-1.26082 48.9216L-2.71961 52.1841L1.64953 52.5552L-0.427071 55.7196L4.10471 57.0688L-4.82063 63.5981" fill="#FF7D43"/>
<path fill-rule="evenodd" clip-rule="evenodd" d="M1.28434 54.4957L3.36811 51.3182L-1.01673 50.9449L0.446928 47.6694L-3.93791 47.2967L-3.14117 44.2344L-7.21679 43.9109L-6.06235 40.5861L-9.77916 40.0002L-9.18634 37.2244C-12.3488 35.2747 -15.4616 38.7713 -15.9424 39.2525C-14.7245 38.6011 -14.0587 37.9866 -12.5911 39.7159L-11.7989 41.7535L-7.67477 41.7658L-8.8292 45.0906L-4.75415 45.4146L-5.55032 48.4769L-1.16549 48.8496L-2.6297 52.1252L1.75569 52.4984L-0.328636 55.676L4.22056 57.0309L5.83298 55.8506L1.28434 54.4957" fill="#DE3A08"/>
<path fill-rule="evenodd" clip-rule="evenodd" d="M-18.0164 32.1184C-18.0164 32.1184 -12.2061 27.4029 -13.5605 22.8674C-14.9149 18.333 -11.7236 14.7354 -9.58614 13.1032C-9.58614 13.1032 -6.15127 17.8327 -2.69239 15.3103C0.00188778 13.3455 0.408486 11.4109 0.408486 11.4109L2.54592 13.0734L4.12596 10.1259L7.06151 11.7138L8.26567 8.05559L11.2157 9.1443L11.638 5.0626L15.0092 5.36549L14.8891 2.76514L18.6217 4.27733C18.6217 4.27733 17.3265 10.928 8.92751 15.7647C0.528009 20.6013 -0.254471 23.4732 -1.79039 28.2201C-3.32574 32.9659 -9.61797 33.8729 -9.61797 33.8729L-18.0164 32.1184" fill="#FF7D43"/>
<path fill-rule="evenodd" clip-rule="evenodd" d="M18.3966 5.27862C17.7733 7.1555 15.5867 12.0653 8.92751 15.859C0.528009 20.6444 -0.254471 23.4858 -1.79039 28.1825C-3.32574 32.878 -9.61797 33.7748 -9.61797 33.7748L-18.0164 32.0394C-18.0164 32.0394 -16.6016 32.9218 -15.4276 33.5501C-13.9666 34.332 -9.66321 35.2555 -9.66321 35.2555C-9.66321 35.2555 -2.52092 34.1489 -0.877214 29.526C0.767053 24.9032 1.12171 21.3892 9.80047 16.5771C18.4792 11.7656 18.6217 4.49335 18.6217 4.49335L18.3966 5.27862" fill="#DE3A08"/>
<path fill-rule="evenodd" clip-rule="evenodd" d="M14.8196 0C14.8196 0 -4.81819 2.25289 -9.72095 13.0788C-9.72095 13.0788 -8.42816 16.2523 -4.93927 15.8671C-4.93927 15.8671 -0.848897 8.83767 4.20395 6.0499C9.25623 3.26267 14.8196 0 14.8196 0" fill="#FA6109"/>
<path fill-rule="evenodd" clip-rule="evenodd" d="M7.94067 46.9243C8.17719 45.4157 9.59243 44.385 11.1006 44.6215C12.6093 44.8586 13.6406 46.2738 13.4029 47.7819C13.1664 49.2905 11.7517 50.3212 10.243 50.0841C8.73427 49.8476 7.70359 48.4324 7.94067 46.9243" fill="#554644"/>
<path fill-rule="evenodd" clip-rule="evenodd" d="M11.3538 47.187C10.9681 47.4683 10.4275 47.3832 10.1463 46.9976C9.86555 46.6121 9.95008 46.0715 10.3362 45.7903C10.7219 45.5096 11.2619 45.5941 11.5432 45.9802C11.8239 46.3653 11.7394 46.9058 11.3538 47.187" fill="white"/>
<path fill-rule="evenodd" clip-rule="evenodd" d="M-2.72688 93.968C-4.31371 94.0343 -16.8811 91.7312 -21.4728 98.9386C-26.065 106.147 -25.6078 111.297 -25.6078 111.297C-25.6078 111.297 -16.1532 109.3 -15.8505 103.318C-15.8505 103.318 -5.45554 103.374 -4.30873 100.065C-4.30873 100.065 0.276314 103.011 2.34578 99.8473C4.4158 96.6839 -2.72688 93.968 -2.72688 93.968" fill="#DE3A08"/>
<path fill-rule="evenodd" clip-rule="evenodd" d="M71.8218 125.814C71.8218 125.814 80.3203 116.56 76.3015 109.914L70.468 112.456L71.8218 125.814" fill="#DE3A08"/>
<path fill-rule="evenodd" clip-rule="evenodd" d="M60.3928 96.434C60.3928 96.434 66.8598 98.1657 69.8717 99.6165C72.8836 101.067 76.3438 109.789 76.3438 109.789L70.5701 112.334C70.5701 112.334 65.7031 103.799 62.9881 102.975C60.2725 102.152 59.0617 99.9434 59.0617 99.9434L60.3928 96.434" fill="#DE3A08"/>
<path fill-rule="evenodd" clip-rule="evenodd" d="M50.1803 91.595C50.1803 91.595 59.8879 93.5914 60.3649 96.3595C60.8414 99.1276 59.0157 99.8904 59.0157 99.8904C59.0157 99.8904 50.5326 95.8698 48.856 94.8244C47.1793 93.7796 50.1803 91.595 50.1803 91.595" fill="#DE3A08"/>
<path fill-rule="evenodd" clip-rule="evenodd" d="M107.797 81.2258C107.797 81.2258 107.124 93.0467 100.171 95.7427L98.1193 90.4929L107.797 81.2258" fill="#DE3A08"/>
<path fill-rule="evenodd" clip-rule="evenodd" d="M80.8372 97.046C80.8372 97.046 86.1701 99.5437 89.0936 100.18C92.0176 100.817 100.193 95.7847 100.193 95.7847L98.2249 90.2125C98.2249 90.2125 89.2741 94.2414 86.969 93.272C84.6634 92.3026 82.3785 93.3739 82.3785 93.3739L80.8372 97.046" fill="#DE3A08"/>
<path fill-rule="evenodd" clip-rule="evenodd" d="M71.2026 94.8588C71.2026 94.8588 78.7389 98.8444 80.9294 96.9693C83.1194 95.0941 82.4779 93.4615 82.4779 93.4615C82.4779 93.4615 74.3405 91.7442 72.5614 91.5995C70.7817 91.4544 71.2026 94.8588 71.2026 94.8588" fill="#DE3A08"/>
<path fill-rule="evenodd" clip-rule="evenodd" d="M58.6564 91.5158C58.6564 91.5158 68.0397 95.0016 71.2791 94.6856C71.2791 94.6856 74.5502 92.8331 72.6277 91.3993C70.7053 89.9655 56.2966 84.6822 56.2966 84.6822L58.6564 91.5158" fill="#DE3A08"/>
<path fill-rule="evenodd" clip-rule="evenodd" d="M88.0547 75.6955C88.0547 75.6955 94.169 75.2851 97.1758 74.3818C100.183 73.4785 105.378 64.6425 105.378 64.6425L100.929 60.4873C100.929 60.4873 94.5419 68.7892 91.951 69.0687C89.3596 69.3476 87.75 71.5076 87.75 71.5076L88.0547 75.6955" fill="#DE3A08"/>
<path fill-rule="evenodd" clip-rule="evenodd" d="M78.0652 78.4606C78.0652 78.4606 86.9375 78.4931 88.0257 75.6332C89.1133 72.7732 87.7223 71.5478 87.7223 71.5478C87.7223 71.5478 79.4139 73.9589 77.7101 74.7035C76.0063 75.4487 78.0652 78.4606 78.0652 78.4606" fill="#DE3A08"/>
<path fill-rule="evenodd" clip-rule="evenodd" d="M64.8588 81.9171C64.8588 81.9171 75.1175 80.4752 77.9272 78.5267C77.9272 78.5267 80.0244 75.0954 77.5759 74.7037C75.1268 74.3125 59.4073 76.5945 59.4073 76.5945L64.8588 81.9171" fill="#DE3A08"/>
<path fill-rule="evenodd" clip-rule="evenodd" d="M42.4709 18.6883C42.4709 18.6883 62.3327 17.6473 68.3941 29.3759C68.3941 29.3759 67.4438 33.3252 63.9165 33.5272C63.9165 33.5272 59.0747 26.0816 53.7271 23.7697C48.3801 21.4584 42.4709 18.6883 42.4709 18.6883" fill="#DE3A08"/>
<path fill-rule="evenodd" clip-rule="evenodd" d="M58.3511 73.6217C58.3511 73.6217 74.4653 66.3461 77.7264 55.8069C77.7264 55.8069 75.8262 51.7239 71.8542 52.6836L71.562 54.532L67.8331 53.9513L67.9181 57.4365L63.9276 56.4995L63.7505 59.6284L59.4499 58.6433L59.845 62.1761L55.5444 61.1915L56.561 64.8212L51.8033 64.7121L58.3511 73.6217" fill="#FF7525"/>
<path fill-rule="evenodd" clip-rule="evenodd" d="M55.5336 63.0255L54.5149 59.3816L58.8241 60.3704L58.4282 56.8239L62.7379 57.8127L62.9148 54.6727L66.9132 55.6131L66.828 52.1149L70.5637 52.6972L70.8482 49.8909C74.4714 49.0138 76.3776 53.2734 76.6895 53.8757C75.7241 52.8869 75.2755 52.1021 73.3413 53.289L71.9587 54.9741L68.0091 53.7244L68.0942 57.2226L64.0958 56.2822L63.9183 59.4228L59.6092 58.4339L60.0051 61.9799L55.696 60.9917L56.7146 64.635L51.9474 64.5254L50.7664 62.9154L55.5336 63.0255" fill="#FF7D43"/>
<path fill-rule="evenodd" clip-rule="evenodd" d="M77.7448 55.6483C77.9899 54.1289 83.9254 50.9889 79.6228 45.9703L71.5049 48.7757C71.5049 48.7757 71.9019 52.2623 72.9039 53.9731L77.7448 55.6483" fill="#FF6309"/>
<path fill-rule="evenodd" clip-rule="evenodd" d="M77.474 55.6483C77.7215 54.074 84.2371 50.9016 79.402 45.6247L70.468 48.417C70.468 48.417 70.9607 52.0437 72.0952 53.8355L77.474 55.6483" fill="#DE3A08"/>
<path fill-rule="evenodd" clip-rule="evenodd" d="M77.7448 55.6483C77.9899 54.1289 83.9254 50.9889 79.6228 45.9703L71.5049 48.7757C71.5049 48.7757 71.829 52.7183 72.831 54.4291L77.7448 55.6483" fill="#FF6309"/>
<path fill-rule="evenodd" clip-rule="evenodd" d="M79.8002 45.877C79.8002 45.877 73.4015 42.0198 74.1334 37.3742C74.8653 32.7292 71.2147 29.619 68.8748 28.3015C68.8748 28.3015 66.1059 33.4194 62.3346 31.4033C59.3974 29.8335 58.7332 27.9839 58.7332 27.9839L56.8377 29.9087L54.8723 27.2213L52.1751 29.1789L50.487 25.7422L47.7076 27.2112L46.7397 23.252L43.4358 24.0041L43.2043 21.4298L39.7058 23.4208C39.7058 23.4208 41.887 29.7911 50.8701 33.4178C59.8531 37.0444 61.0167 39.7652 63.18 44.2286C65.3427 48.692 71.7056 48.7355 71.7056 48.7355L79.8002 45.877" fill="#FF7D43"/>
<path fill-rule="evenodd" clip-rule="evenodd" d="M40.0357 23.9134C40.9096 25.708 43.7478 30.3267 50.8701 33.2216C59.8531 36.8724 61.0167 39.6108 63.18 44.1045C65.3427 48.5977 71.7056 48.6414 71.7056 48.6414L79.8002 45.764C79.8002 45.764 78.517 46.8396 77.4385 47.6281C76.096 48.6089 71.9528 50.118 71.9528 50.118C71.9528 50.118 64.717 49.9801 62.457 45.5744C60.1964 41.1687 59.3661 37.6985 50.1018 34.0589C40.8381 30.4198 39.7058 23.158 39.7058 23.158L40.0357 23.9134" fill="#DE3A08"/>
<path fill-rule="evenodd" clip-rule="evenodd" d="M42.8166 18.321C42.8166 18.321 62.443 17.9226 68.7397 28.2968C68.7397 28.2968 67.8999 31.7135 64.4152 31.799C64.4152 31.799 59.4342 25.1873 54.0843 23.0368C48.7344 20.8853 42.8166 18.321 42.8166 18.321" fill="#FA6109"/>
<path fill-rule="evenodd" clip-rule="evenodd" d="M105.125 47.3529C105.125 47.3529 110.253 58.4945 105.284 64.2893L100.884 60.465L105.125 47.3529" fill="#FF7D43"/>
<path fill-rule="evenodd" clip-rule="evenodd" d="M88.0986 74.313C88.0986 74.313 94.2335 73.9994 97.2434 73.2009C100.253 72.4029 105.378 64.3473 105.378 64.3473L100.868 60.4873C100.868 60.4873 94.5411 68.0413 91.9423 68.2705C89.3435 68.5002 87.75 70.4657 87.75 70.4657L88.0986 74.313" fill="#FF7C30"/>
<path fill-rule="evenodd" clip-rule="evenodd" d="M78.0952 77.0772C78.0952 77.0772 86.9854 77.2024 88.0456 74.4555C89.1059 71.708 87.6993 70.5109 87.6993 70.5109C87.6993 70.5109 79.399 72.7486 77.6997 73.449C76.0008 74.1499 78.0952 77.0772 78.0952 77.0772" fill="#FA6109"/>
<path fill-rule="evenodd" clip-rule="evenodd" d="M65.0133 80.1889C65.0133 80.1889 75.4425 78.9015 78.2831 77.0425C78.2831 77.0425 80.3831 73.736 77.8856 73.3296C75.3886 72.9232 59.4073 74.9639 59.4073 74.9639L65.0133 80.1889" fill="#E86A00"/>
<path fill-rule="evenodd" clip-rule="evenodd" d="M108.143 80.5345C108.143 80.5345 107.482 92.361 100.524 95.0514L98.4648 89.7962L108.143 80.5345" fill="#FF7D43"/>
<path fill-rule="evenodd" clip-rule="evenodd" d="M81.5284 95.6431C81.5284 95.6431 86.8238 98.1229 89.7119 98.7878C92.5994 99.4528 100.539 94.848 100.539 94.848L98.4913 89.5212C98.4913 89.5212 89.7698 93.1577 87.4834 92.1894C85.197 91.2217 82.9714 92.1911 82.9714 92.1911L81.5284 95.6431" fill="#FA6109"/>
<path fill-rule="evenodd" clip-rule="evenodd" d="M72.2569 93.3745C72.2569 93.3745 79.646 97.4194 81.7298 95.6329C83.8148 93.8463 83.1588 92.239 83.1588 92.239C83.1588 92.239 75.2345 90.3974 73.5065 90.2193C71.7785 90.0413 72.2569 93.3745 72.2569 93.3745" fill="#FA6109"/>
<path fill-rule="evenodd" clip-rule="evenodd" d="M59.7627 89.9775C59.7627 89.9775 68.9378 93.5514 72.0745 93.3117C72.0745 93.3117 75.2107 91.5816 73.3159 90.1508C71.4211 88.7206 57.3335 83.2996 57.3335 83.2996L59.7627 89.9775" fill="#E86A00"/>
<path fill-rule="evenodd" clip-rule="evenodd" d="M72.5189 125.468C72.5189 125.468 79.8574 116.153 76.5026 109.568L71.5049 112.164L72.5189 125.468" fill="#FA6109"/>
<path fill-rule="evenodd" clip-rule="evenodd" d="M62.9885 96.434C62.9885 96.434 68.4418 98.0718 70.9738 99.4693C73.5068 100.867 76.3439 109.421 76.3439 109.421L71.4339 111.988C71.4339 111.988 67.4051 103.632 65.1163 102.849C62.8281 102.067 61.8269 99.9039 61.8269 99.9039L62.9885 96.434" fill="#E86A00"/>
<path fill-rule="evenodd" clip-rule="evenodd" d="M54.3891 91.9407C54.3891 91.9407 62.4382 93.7779 62.8065 96.4554C63.1747 99.1329 61.6493 99.8904 61.6493 99.8904C61.6493 99.8904 54.6384 96.08 53.2554 95.0841C51.8719 94.0882 54.3891 91.9407 54.3891 91.9407" fill="#DE3A08"/>
<path fill-rule="evenodd" clip-rule="evenodd" d="M47.1468 101.619C48.6454 102.171 61.3825 103.851 63.572 112.111C65.7609 120.372 63.7457 125.122 63.7457 125.122C63.7457 125.122 55.3057 120.315 56.8477 114.54C56.8477 114.54 46.8779 111.394 46.7933 107.897C46.7933 107.897 41.5019 109.284 40.4893 105.641C39.4761 101.999 47.1468 101.619 47.1468 101.619" fill="#DE3A08"/>
<path fill-rule="evenodd" clip-rule="evenodd" d="M47.3211 134.403C47.3211 134.403 53.5667 137.271 57.0045 133.697C60.4423 130.124 60.3264 128.841 60.3264 128.841C60.3264 128.841 62.5057 129.18 63.7642 125.268C65.0222 121.356 57.172 118.555 57.172 118.555C57.172 118.555 52.7198 124.499 53.5252 127.468C53.5252 127.468 47.0046 128.349 47.3211 134.403" fill="#FF7D43"/>
<path fill-rule="evenodd" clip-rule="evenodd" d="M49.6957 54.0034C49.9322 52.4948 48.9016 51.0802 47.3931 50.8431C45.8851 50.6066 44.47 51.6372 44.233 53.1459C43.9965 54.6545 45.0271 56.0686 46.5356 56.3057C48.0442 56.5427 49.4587 55.5121 49.6957 54.0034" fill="#554644"/>
<path fill-rule="evenodd" clip-rule="evenodd" d="M43.8535 60.8767L44.9499 61.1786L46.9642 55.2594L45.8678 54.957L43.8535 60.8767" fill="#554644"/>
<path fill-rule="evenodd" clip-rule="evenodd" d="M62.8256 75.8808C63.0339 74.1615 63.1057 69.9855 58.9433 69.7789C58.7161 69.7683 58.5196 69.6235 58.4667 69.4024C58.047 67.6485 55.9739 60.3865 51.1022 64.0078C50.7821 64.2461 50.3195 64.0534 50.2934 63.6552C50.1525 61.5149 49.2468 56.9702 43.9209 59.9432C43.6509 60.0941 43.3119 59.9838 43.1989 59.6964C42.5815 58.132 40.4599 54.0306 36.1929 57.5984C35.9418 57.8089 35.5538 57.7226 35.4218 57.4219C34.9425 56.3319 33.5603 54.3247 29.9785 54.8142C28.6591 54.9941 27.7851 55.2787 27.2045 55.5979C27.0069 55.7065 26.7686 55.6691 26.6127 55.5048C26.1585 55.0236 25.4136 54.4845 24.2123 53.9081C20.9534 52.3447 19.0228 53.8312 18.2323 54.7223C18.0146 54.9674 17.6199 54.9306 17.4445 54.6533C14.4751 49.9482 11.2001 53.2019 10.1335 54.5018C9.93695 54.7413 9.58123 54.7418 9.37024 54.5157C5.21118 50.0529 2.95713 54.1008 2.16718 56.0952C2.02021 56.4661 1.52142 56.5079 1.28927 56.1827C-2.23905 51.2425 -6.43652 57.5188 -7.37344 59.0593C-7.4909 59.2537 -7.72249 59.3305 -7.94182 59.272C-11.9684 58.1927 -13.1786 62.1893 -13.5071 63.8897C-13.5711 64.2216 -13.9241 64.3776 -14.2336 64.2395C-16.2917 63.3205 -18.1822 65.9443 -18.9805 67.2759C-19.1614 67.5784 -18.9889 67.9783 -18.6415 68.0345C-16.8756 68.3219 -12.3648 70.2707 -9.74384 82.3609C-6.43263 97.633 -2.77292 100.085 2.67544 102.236C10.414 105.292 17.2096 104.845 19.0779 104.641C19.1664 104.631 19.2438 104.643 19.325 104.679C21.0413 105.446 27.3726 107.956 35.6751 107.42C41.5204 107.043 45.7546 105.831 53.5845 92.3091C59.7839 81.604 64.6744 81.1323 66.443 81.4007C66.7915 81.4536 67.0777 81.125 66.9981 80.7819C66.6462 79.2698 65.6503 76.1932 63.4102 76.4361C63.0734 76.4734 62.785 76.2166 62.8256 75.8808" fill="#FF7D43"/>
<path fill-rule="evenodd" clip-rule="evenodd" d="M-19.0533 67.5153C-17.2215 67.8137 -13.8502 70.1735 -11.1607 82.8881C-7.76386 98.9473 -3.97324 101.518 1.67371 103.768C9.70496 106.967 16.7638 106.474 18.6931 106.255C18.7799 106.245 18.8551 106.257 18.9359 106.293C20.7053 107.093 27.2724 109.724 35.899 109.139C41.9637 108.727 45.556 106.95 54.5179 93.1951C60.7614 83.6124 62.6088 83.4621 64.899 82.5179C65.5222 82.2607 66.9268 81.7258 67.0115 80.6369C67.0115 80.6369 44.2338 72.5489 34.5902 80.5517C31.3158 83.2695 28.6402 85.7929 26.535 87.9395C23.7179 90.8125 18.9799 90.0526 17.2305 86.4286C15.9395 83.7549 14.1405 80.3185 11.6348 75.9474C3.11677 61.0873 -18.5938 66.7187 -18.5938 66.7187L-19.0533 67.5153" fill="#DE3A08"/>
<path fill-rule="evenodd" clip-rule="evenodd" d="M67.0115 80.78C67.0115 80.78 43.6273 72.6591 34.3468 80.2436C31.195 82.8197 28.6213 85.2119 26.5957 87.2477C23.8861 89.9725 19.3157 89.239 17.6198 85.7901C16.3689 83.2458 15.1046 79.656 12.2001 75.8144C0.904554 60.8737 -18.5938 66.8541 -18.5938 66.8541L-19.0533 67.6512C-19.0093 67.8372 -18.8762 67.9976 -18.6679 68.0316C-16.9012 68.319 -12.3882 70.2679 -9.7661 82.359C-6.45335 97.6322 -2.79194 100.085 2.65895 102.236C10.4106 105.295 17.2155 104.843 19.0757 104.64C19.1603 104.63 19.2327 104.642 19.3102 104.677C21.0183 105.441 27.357 107.957 35.674 107.42C41.522 107.043 45.7582 105.831 53.5923 92.308C59.7934 81.6021 64.6868 81.1303 66.4562 81.3988L67.0115 80.78" fill="#F16A30"/>
<path fill-rule="evenodd" clip-rule="evenodd" d="M47.6457 53.3756C47.2606 53.7131 46.7201 53.6104 46.4389 53.1483C46.1576 52.6849 46.2427 52.0369 46.6288 51.6994C47.0138 51.3625 47.5544 51.464 47.8356 51.9267C48.1163 52.39 48.0318 53.0381 47.6457 53.3756" fill="white"/>
<path fill-rule="evenodd" clip-rule="evenodd" d="M34.6013 67.0545C26.7083 67.0545 14.0645 65.4128 11.4522 61.7117C10.6083 60.5165 15.8891 59.1047 21.9246 59.1047C23.7064 59.1047 25.5533 59.2277 27.3284 59.5156C35.1173 60.778 41.7646 64.0234 41.0332 66.073C40.8039 66.7137 38.1938 67.0545 34.6013 67.0545" fill="#FFA073"/>
</svg>
