<svg width="32" height="32" viewBox="0 0 32 32" fill="none" xmlns="http://www.w3.org/2000/svg">
<path d="M16 29.3333C8.63599 29.3333 2.66666 23.364 2.66666 16C2.66666 8.636 8.63599 2.66666 16 2.66666C23.364 2.66666 29.3333 8.636 29.3333 16C29.3333 23.364 23.364 29.3333 16 29.3333ZM16 26.6667C18.829 26.6667 21.5421 25.5429 23.5425 23.5425C25.5429 21.5421 26.6667 18.829 26.6667 16C26.6667 13.171 25.5429 10.4579 23.5425 8.45753C21.5421 6.45714 18.829 5.33333 16 5.33333C13.171 5.33333 10.4579 6.45714 8.45752 8.45753C6.45713 10.4579 5.33332 13.171 5.33332 16C5.33332 18.829 6.45713 21.5421 8.45752 23.5425C10.4579 25.5429 13.171 26.6667 16 26.6667ZM14.1627 11.22L20.668 15.556C20.7411 15.6047 20.8011 15.6707 20.8426 15.7481C20.8841 15.8256 20.9058 15.9121 20.9058 16C20.9058 16.0879 20.8841 16.1744 20.8426 16.2518C20.8011 16.3293 20.7411 16.3953 20.668 16.444L14.1613 20.78C14.0811 20.8332 13.988 20.8637 13.8918 20.8682C13.7957 20.8727 13.7001 20.8512 13.6152 20.8058C13.5303 20.7604 13.4593 20.6929 13.4097 20.6104C13.36 20.528 13.3337 20.4336 13.3333 20.3373V11.6627C13.3335 11.5662 13.3598 11.4716 13.4095 11.3889C13.4592 11.3062 13.5304 11.2386 13.6155 11.1931C13.7006 11.1477 13.7964 11.1262 13.8928 11.131C13.9891 11.1357 14.0824 11.1665 14.1627 11.22Z" fill="url(#paint0_linear_0_462)"/>
<defs>
<linearGradient id="paint0_linear_0_462" x1="16" y1="2.66666" x2="16" y2="29.3333" gradientUnits="userSpaceOnUse">
<stop stop-color="#1B18F9"/>
<stop offset="0.463542" stop-color="#1B18F9"/>
<stop offset="1" stop-color="#E146AD"/>
</linearGradient>
</defs>
</svg>
